<svg width="82" height="89" viewBox="0 0 82 89" fill="none" xmlns="http://www.w3.org/2000/svg">
<g filter="url(#filter0_d)">
<path fill-rule="evenodd" clip-rule="evenodd" d="M41 70C53.1503 70 63 60.1503 63 48C63 35.8497 53.1503 26 41 26C28.8497 26 19 35.8497 19 48C19 60.1503 28.8497 70 41 70Z" fill="black" fill-opacity="0.01"/>
</g>
<g filter="url(#filter1_d)">
<path fill-rule="evenodd" clip-rule="evenodd" d="M41 70C57.5685 70 71 56.5685 71 40C71 23.4315 57.5685 10 41 10C24.4315 10 11 23.4315 11 40C11 56.5685 24.4315 70 41 70Z" fill="#2196F3"/>
<path d="M69 40C69 55.464 56.464 68 41 68C25.536 68 13 55.464 13 40C13 24.536 25.536 12 41 12C56.464 12 69 24.536 69 40Z" stroke="#42A5F5" stroke-width="4"/>
</g>
<mask id="mask0" mask-type="alpha" maskUnits="userSpaceOnUse" x="11" y="10" width="60" height="60">
<path fill-rule="evenodd" clip-rule="evenodd" d="M41 70C57.5685 70 71 56.5685 71 40C71 23.4315 57.5685 10 41 10C24.4315 10 11 23.4315 11 40C11 56.5685 24.4315 70 41 70Z" fill="white"/>
</mask>
<g mask="url(#mask0)">
<path d="M13.714 32.875H67.536" stroke="#42A5F5" stroke-width="4" stroke-linecap="square"/>
<path d="M13.714 48.625H67.536" stroke="#42A5F5" stroke-width="4" stroke-linecap="square"/>
<path d="M40.25 14.5C40.25 14.5 30.2878 26.0775 30.5035 40.75C30.7191 55.4225 40.25 65.5 40.25 65.5" stroke="#42A5F5" stroke-width="4" stroke-linecap="round" stroke-linejoin="round"/>
<path d="M41 14.5C41 14.5 50.9622 26.0775 50.7465 40.75C50.5309 55.4225 41 65.5 41 65.5" stroke="#42A5F5" stroke-width="4" stroke-linecap="round" stroke-linejoin="round"/>
<path fill-rule="evenodd" clip-rule="evenodd" d="M50.989 28.7947C51.189 28.6792 51.4095 28.6075 51.64 28.593C52.6565 28.529 55.5924 28.4449 56.2291 29.5478C56.8659 30.6507 55.3242 33.1506 54.7604 33.9983C54.6327 34.1904 54.4604 34.3453 54.2606 34.4607L48.1848 37.9685L49.0287 55.0689C49.0405 55.3083 48.9194 55.5348 48.7137 55.658L47.4644 56.4062C47.2999 56.5048 47.1001 56.5255 46.9188 56.4629L45.972 56.1359C45.8134 56.0812 45.6821 55.9671 45.6058 55.8177L39.1478 43.1861L32.7787 46.8633L32.0918 51.5347C32.0442 51.8581 31.7637 52.0957 31.437 52.0895L30.939 52.0801C30.6871 52.0753 30.4607 51.9252 30.3582 51.6951L28.5685 47.6791C27.3383 47.7184 26.1835 47.5975 25.8736 47.0609C25.5641 46.5248 26.0373 45.469 26.6874 44.428L24.1239 40.897C23.9759 40.6932 23.9591 40.4221 24.0809 40.2016L24.3217 39.7656C24.4798 39.4795 24.8258 39.3555 25.1296 39.4759L29.4918 41.2061L35.8723 37.5224L28.2136 25.6936C28.1224 25.5527 28.0892 25.3821 28.1211 25.2173L28.3114 24.2338C28.3478 24.0455 28.4656 23.8829 28.6333 23.7897L29.9059 23.0819C30.1154 22.9653 30.3721 22.9737 30.5735 23.1037L44.8712 32.3268L50.989 28.7947Z" fill="white"/>
</g>
<mask id="mask1" mask-type="alpha" maskUnits="userSpaceOnUse" x="24" y="23" width="33" height="34">
<path fill-rule="evenodd" clip-rule="evenodd" d="M50.989 28.7947C51.189 28.6792 51.4095 28.6075 51.64 28.593C52.6565 28.529 55.5924 28.4449 56.2291 29.5478C56.8659 30.6507 55.3242 33.1506 54.7604 33.9983C54.6327 34.1904 54.4604 34.3453 54.2606 34.4607L48.1848 37.9685L49.0287 55.0689C49.0405 55.3083 48.9194 55.5348 48.7137 55.658L47.4644 56.4062C47.2999 56.5048 47.1001 56.5255 46.9188 56.4629L45.972 56.1359C45.8134 56.0812 45.6821 55.9671 45.6058 55.8177L39.1478 43.1861L32.7787 46.8633L32.0918 51.5347C32.0442 51.8581 31.7637 52.0957 31.437 52.0895L30.939 52.0801C30.6871 52.0753 30.4607 51.9252 30.3582 51.6951L28.5685 47.6791C27.3383 47.7184 26.1835 47.5975 25.8736 47.0609C25.5641 46.5248 26.0373 45.469 26.6874 44.428L24.1239 40.897C23.9759 40.6932 23.9591 40.4221 24.0809 40.2016L24.3217 39.7656C24.4798 39.4795 24.8258 39.3555 25.1296 39.4759L29.4918 41.2061L35.8723 37.5224L28.2136 25.6936C28.1224 25.5527 28.0892 25.3821 28.1211 25.2173L28.3114 24.2338C28.3478 24.0455 28.4656 23.8829 28.6333 23.7897L29.9059 23.0819C30.1154 22.9653 30.3721 22.9737 30.5735 23.1037L44.8712 32.3268L50.989 28.7947Z" fill="white"/>
</mask>
<g mask="url(#mask1)">
<path d="M45.9846 31.684L45.3304 30.5508L34.5844 36.755L35.2387 37.8882L45.9846 31.684Z" fill="#EBECF2"/>
<path fill-rule="evenodd" clip-rule="evenodd" d="M48.7137 55.658C48.9194 55.5348 49.0405 55.3084 49.0287 55.0689L48.1572 37.4095L38.9208 42.7421L45.6058 55.8177C45.6821 55.9671 45.8134 56.0812 45.972 56.1359L46.9188 56.4629C47.1001 56.5256 47.2999 56.5048 47.4644 56.4062L48.7137 55.658Z" fill="#DEE1E3"/>
<path opacity="0.4" fill-rule="evenodd" clip-rule="evenodd" d="M28.631 47.5682L28.542 47.6196L30.3582 51.6951C30.4608 51.9253 30.6871 52.0753 30.939 52.0801L31.437 52.0895C31.7637 52.0957 32.0442 51.8581 32.0918 51.5347L32.8174 46.6003L32.3544 46.8676C32.2111 46.9503 32.057 47.0121 31.8955 47.0482C31.3453 47.171 29.9491 47.462 28.631 47.5682Z" fill="#DEE1E3"/>
<path fill-rule="evenodd" clip-rule="evenodd" d="M39.0426 42.9803L48.172 37.7095L48.2713 39.7208L40.7504 46.3207L39.0426 42.9803Z" fill="#C5C6CC"/>
<path fill-rule="evenodd" clip-rule="evenodd" d="M57.2766 32.7193L27.4857 49.9192C27.4857 49.9192 26.6066 48.3305 25.8736 47.0608C25.8647 47.0455 25.8564 47.0299 25.8485 47.0142C27.2 47.1119 29.9212 47.002 32.5604 45.4783L53.185 33.5707C55.4766 32.2476 56.0379 30.5343 56.347 29.7978C56.8255 31.0829 57.2766 32.7193 57.2766 32.7193Z" fill="#DEE1E3"/>
</g>
<defs>
<filter id="filter0_d" x="8" y="23" width="66" height="66" filterUnits="userSpaceOnUse" color-interpolation-filters="sRGB">
<feFlood flood-opacity="0" result="BackgroundImageFix"/>
<feColorMatrix in="SourceAlpha" type="matrix" values="0 0 0 0 0 0 0 0 0 0 0 0 0 0 0 0 0 0 127 0"/>
<feOffset dy="8"/>
<feGaussianBlur stdDeviation="5.5"/>
<feColorMatrix type="matrix" values="0 0 0 0 0.215686 0 0 0 0 0.407843 0 0 0 0 0.556863 0 0 0 0.25 0"/>
<feBlend mode="normal" in2="BackgroundImageFix" result="effect1_dropShadow"/>
<feBlend mode="normal" in="SourceGraphic" in2="effect1_dropShadow" result="shape"/>
</filter>
<filter id="filter1_d" x="0" y="0" width="82" height="82" filterUnits="userSpaceOnUse" color-interpolation-filters="sRGB">
<feFlood flood-opacity="0" result="BackgroundImageFix"/>
<feColorMatrix in="SourceAlpha" type="matrix" values="0 0 0 0 0 0 0 0 0 0 0 0 0 0 0 0 0 0 127 0"/>
<feOffset dy="1"/>
<feGaussianBlur stdDeviation="5.5"/>
<feColorMatrix type="matrix" values="0 0 0 0 0.215686 0 0 0 0 0.407843 0 0 0 0 0.556863 0 0 0 0.3 0"/>
<feBlend mode="normal" in2="BackgroundImageFix" result="effect1_dropShadow"/>
<feBlend mode="normal" in="SourceGraphic" in2="effect1_dropShadow" result="shape"/>
</filter>
</defs>
</svg>
